<svg width="25" height="26" xmlns="http://www.w3.org/2000/svg" xmlns:xlink="http://www.w3.org/1999/xlink" xml:space="preserve" overflow="hidden"><g transform="translate(-73 -659)"><path d="M79.9841 663.458C80.9092 663.035 81.9622 662.828 83.1529 662.828 84.2846 662.828 85.3376 662.946 86.3217 663.192 87.3058 663.438 88.1522 663.684 88.8607 663.94 89.1166 663.389 89.3331 662.799 89.5201 662.149 89.6972 661.5 89.8153 660.86 89.8842 660.21 88.9788 659.886 87.9258 659.6 86.7154 659.364 85.5049 659.118 84.2748 659 83.0151 659 82.405 659 81.8539 659.049 81.3126 659.098L79.8955 663.507C79.8955 663.507 79.9546 663.468 79.9841 663.448Z" fill="#E30613"/><path d="M90.1499 674.273C89.8448 673.516 89.4413 672.866 88.9394 672.335 88.4376 671.803 87.8471 671.36 87.1484 671.006 86.4497 670.652 85.7214 670.347 84.944 670.091L82.8183 669.363C82.2377 669.166 81.6964 668.979 81.1945 668.782 80.6927 668.585 80.2498 668.359 79.866 668.083 79.4822 667.808 79.1771 667.473 78.941 667.089 78.8918 667.011 78.8721 666.912 78.8327 666.824L77.2975 671.626C77.9864 672 78.7638 672.364 79.6692 672.709L81.3618 673.338C81.972 673.535 82.5428 673.732 83.084 673.949 83.6154 674.155 84.0878 674.411 84.4815 674.696 84.8849 674.992 85.2097 675.346 85.4459 675.759 85.6821 676.182 85.81 676.714 85.81 677.354 85.81 677.934 85.6525 678.456 85.3475 678.928 85.0424 679.4 84.6389 679.794 84.137 680.109 83.6351 680.434 83.0447 680.67 82.3755 680.837 81.6964 680.995 80.9879 681.083 80.2498 681.083 79.2165 681.083 78.1734 680.975 77.1204 680.768 76.2051 680.581 75.3785 680.335 74.6011 680.04L73.3709 683.898C74.3058 684.223 75.2998 684.488 76.3823 684.685 77.5435 684.892 78.9016 685 80.4466 685 81.9917 685 83.3497 684.803 84.6094 684.419 85.869 684.036 86.9417 683.494 87.8274 682.796 88.7131 682.107 89.402 681.26 89.8842 680.276 90.3664 679.292 90.6124 678.2 90.6124 677.009 90.6124 675.946 90.455 675.031 90.1499 674.273Z" fill="#E30613"/></g></svg>